<svg id="Layer_1" data-name="Layer 1" xmlns="http://www.w3.org/2000/svg" xmlns:xlink="http://www.w3.org/1999/xlink" viewBox="0 0 1920 1920"><defs><style>.cls-1{fill:url(#linear-gradient);}.cls-2{fill:#f6f7f9;}.cls-3{fill:#254769;}</style><linearGradient id="linear-gradient" x1="1984.96" y1="60.7" x2="-1375.4" y2="3009.49" gradientUnits="userSpaceOnUse"><stop offset="0.03" stop-color="#479794"/><stop offset="0.17" stop-color="#397a78"/><stop offset="0.44" stop-color="#214644"/><stop offset="0.69" stop-color="#0f201f"/><stop offset="0.88" stop-color="#040908"/><stop offset="1"/></linearGradient></defs><rect class="cls-1" x="-2.12" width="1922.12" height="1922.12"/><path class="cls-2" d="M434.51,424.59c-.3-25.73,20.15-28.45,37.37-30.19,44.53-4.51,87,7,122.07,33.33,52.56,39.58,102.4,82.9,152.13,126.09,33.82,29.38,64.87,61.94,98.25,91.85,53.58,48,118.24,76,187.3,90.3,39.77,8.26,82,4.94,122.95-12-5-21.26-12-41.75-14.42-62.76-10.54-93.47,20.66-152.06,97.11-193.6,69.87-37.95,153.17-26.44,217.6,30.46,51.62,45.59,70.94,133.44,44.33,203.84-5,13.24-9,24.27.67,38.39,60.62,88.48,67,187.08,46.17,288-9.91,48.07-30.24,93.94-45,141.07-22.67,72.16-47.78,143.78-65.44,217.18-7.65,31.79-8.71,67.92,6,101.09,4.73,10.62,5.29,23.1,5,35.52-22.71-15.05-26.79-38.07-29.52-61.66-7.92-68.51,3.45-135.35,18.27-201.74,15-67.26,34-133.78,45.81-201.58,10.81-62.1-.17-123.78-21.09-183.25-2.16-6.14-6.27-11.59-12.57-23-4.1,27.17-6.08,48.37-10.62,69-21.9,99.47-77.4,178-153,244.1-65.72,57.49-133.83,112.68-195.36,174.4-41.09,41.21-74.22,91.77-70.77,155.2,1.09,20.11,8.6,39.88,13.18,59.8l1.21.67c-46-50.23-41.86-106.32-10.25-159,28.75-47.93,63.7-92.78,100.26-135.24,45.68-53,98.24-100.21,143.23-153.77,34.09-40.58,55.78-89.73,68.07-142,3.49-14.83,4.56-30.22,7.76-52.4-24.26,26.7-41.74,47.48-60.84,66.66-67.38,67.68-150.47,102.9-243.5,119.51-79.13,14.13-158.61,28.27-236,49.41-41.09,11.23-79.22,35.44-116.65,57.29-33.9,19.78-50.24,51.91-48.37,92.15.06,1.32-3.1,2.78-4.77,4.19-23-54.67,20.16-107.83,58.27-131.6,86.21-53.75,184.24-77.12,281.12-102.25,79.54-20.64,151.28-54.79,210-113.13,12.7-12.61,22.16-28.48,33.11-42.85a46.88,46.88,0,0,0,3.74-4.86c.13-.21-1.51-1.51-2.32-2.3l-3.68,4.67c-95.87,42.28-195,53-296.14,24.77-48.57-13.55-95.46-33.25-142.92-50.66-67.07-24.59-134.74-46.92-206.6-52-40.46-2.86-80.46-1.49-117.1,20.17-5.91,3.5-14.47,2.51-21.81,3.59l-3.61-8.25c15.94-8.64,31.18-19,47.93-25.6,65.29-25.53,131.34-12,196.43.5,52.93,10.18,105,25.08,157.27,38.39,88.81,22.58,177.14,27.6,264.59-6,10.27-4,20.11-9,37.52-16.88-135.91-.69-234.82-60-315.26-152.78-61-70.34-116.12-146.26-188.71-205.43-30.21-24.63-65.26-44.6-100.7-61.16-28-13.1-59.75-14-87.83,5.83Z"/><path class="cls-2" d="M731.89,1744.17q21.39,1.71,42.76,3.41c24.42,2,48.82,4.36,73.27,5.8,61.75,3.64,123.47,7.83,185.42,6q137.36-4.15,259.24-67.26c33.64-17.35,67.4-34.67,99.86-54.09,65.8-39.37,131.26-79.62,185.45-134.88,23.43-23.9,46.7-48,64.35-77.11,16.75-27.59,37.69-52.8,52.79-81.18,18.49-34.76,33-71.64,48.87-107.76,7.29-16.59,13.35-33.72,20.59-50.33,7.54-17.33,12.43-35.51,21.16-52.69,7.23-14.23,5.69-33.22,6.87-50.18,3.32-47.84,5.77-95.75,9.23-143.58.62-8.68,4.38-17.14,6.7-25.7l4.69-.64c2.45,5.78,6.51,11.4,7.07,17.35,2.81,30.23,5.91,60.52,6.5,90.83.38,19-3.93,38.14-5.21,57.27-.51,7.6,1.55,15.35,2.3,23,.56,5.84,1.24,11.69,1.28,17.53.28,39.63-3.39,78.79-12.59,117.46-2.69,11.29-1.56,23.49-4.27,34.77-8.45,35-21.29,68.26-45.21,96.08-3.69,4.29-8.37,7.73-15.12,13.84-5.85-25.53,10.21-46.18,7.43-68l-4-1.8c-3.45,5.2-7.13,10.25-10.31,15.6-24.77,41.7-48.16,84.27-74.51,124.94-25,38.63-57.43,71.43-90.84,103.07-11.6,11-23.3,22.12-33.27,34.54-26.52,33.06-60.36,57-95.8,79-17.22,10.69-34.3,21.92-52.56,30.54-22,10.39-45.16,18.34-67.86,27.22-17.87,7-35.33,15.81-53.83,20.17-31.49,7.41-63.63,12.09-95.54,17.67-26.79,4.68-53.52,9.93-80.48,13.22-29.07,3.54-58.37,7-87.58,7.1-52.79.23-105.69-.59-158.36-3.78-34-2-67.85-8.11-99.61-21.82-7-3-13.67-7.08-20.49-10.66C730.8,1747.43,731.35,1745.8,731.89,1744.17ZM1756.05,1307.9l1.14-1.14a10.2,10.2,0,0,0-2.15-1c-.26-.06-.69.65-1,1Z"/><path class="cls-2" d="M225.53,1356.23l-63.09-105.84-3.87,1.49c1.66,4.79,3.2,9.63,5,14.37,11.38,29.87,22.62,59.79,34.27,89.56,21.17,54,50.72,103.25,87.25,148.25,18.47,22.76,37.75,44.86,56.4,67.47,7.78,9.45,15.16,19.27,22.15,29.31,2.8,4,4.09,9.09,6.06,13.68l-2.69,2.7c-5.76-3.06-12-5.48-17.22-9.28-59.48-43.31-108-96.39-144.24-160.72-33.05-58.67-62.4-118.93-83.17-183.15C91,1167.21,73.87,1068.58,83.81,966.31c2.47-25.43,2-51.16,4.94-76.51,1.8-15.48,8.14-30.38,11.34-45.77,5.52-26.6,10.3-53.36,15.07-80.11.82-4.62-.39-9.56.09-14.28,1.08-10.7,2.64-21.34,4-32l3.22.41q-.48,8.25-1,16.51l3.38,1.34c2.32-4.68,5.11-9.2,6.88-14.08,19.59-54.15,48.38-103.61,82-149.69,39.92-54.64,83.54-106.56,125.11-160,41.72-53.67,95.36-92.72,153.42-126.38,9.56-5.55,20.15-9.41,30.46-13.54,3.92-1.56,8.42-1.68,13.71.29-6.22,5.59-12,11.78-18.72,16.66-85.78,62.2-166.91,129.8-232.46,213.6-42.51,54.35-74.88,115-98.52,180.3-32.92,90.91-49.31,185.16-62.12,280.53-6.44,48,4.07,93.38,12.65,139.39,12.52,67.2,41.78,128.53,68,190.89,6.21,14.73,12.76,29.32,18.9,44.09,2.18,5.25,3.6,10.81,5.37,16.24Z"/><path class="cls-2" d="M1760.43,695.08c15.5,4.75,16.25,18.76,26.25,29.57,0-6.57.76-10.38-.12-13.76-8.18-31.4-14.09-63.71-25.61-93.86C1741.41,566,1718.19,516.3,1696.75,466c-3.46-8.11-5.73-16.71-8.56-25.09l2.65-2.31c3.6,3.79,7.42,7.4,10.76,11.41,35.37,42.45,60.71,90.4,78.6,142.54,20,58.37,38.37,117.13,49.2,178.08,8.14,45.88,7.49,91-6.5,135.67-.45,1.43-1.7,2.61-4.27,6.41-3.52-7.18-7.24-12.65-9-18.68-10.16-35.32-20.16-70.69-29.6-106.21-6.7-25.2-12.56-50.63-18.48-76C1760.47,707,1760.85,701.93,1760.43,695.08Z"/><path class="cls-2" d="M370.74,1616.8c7,4.1,14.67,7.44,21,12.45,14.19,11.29,27.45,23.74,41.57,35.12,23.52,18.94,46.52,38.7,71.37,55.74,30.85,21.16,62.61,41.27,95.4,59.23,25,13.69,52.08,23.5,78.37,34.72,38.06,16.26,76.24,32.23,114.18,48.25,0,0-.63,1.3-1,1.23-46.31-7.38-94.1-6.6-138.12-26.57-82.35-37.36-160.34-81.81-228.19-142.07-16.46-14.61-28.71-34-42.84-51.18-4.36-5.31-8.79-10.6-12.63-16.29-1.41-2.08-1.19-5.27-1.71-8Z"/><path class="cls-2" d="M1171.5,178.27c26.1,6.22,52.07,13,78.33,18.52,38.1,8,72.84,23,105.5,44.16,21.87,14.2,46,24.87,68.18,38.63,30.8,19.11,61.67,38.35,90.7,60,20.4,15.2,38.26,34,56.39,52,30.11,30,56.37,63.26,80.21,98.39,13,19.17,25.46,38.71,37.79,58.31,3.24,5.15,5.1,11.17,7.6,16.79l-3.15,1.72c-5.45-7.54-10.78-15.18-16.37-22.61-40.26-53.44-86.79-101.14-133.75-148.63-64-64.67-138.34-114-220.26-151.72-43-19.81-88.4-34.37-132.68-51.39-6.8-2.62-13.42-5.71-20.12-8.58C1170.41,182,1171,180.14,1171.5,178.27Z"/><path class="cls-2" d="M420.43,247.26c7.18-7.44,14.05-15.21,21.59-22.28,48.78-45.74,103.09-83.53,164.31-110.58,15.82-7,33.53-9.88,50.57-13.77,5.27-1.21,11.2.51,17.8,1-1.42,10.94-9.08,14.64-15.52,18.22-33,18.37-66.5,35.81-99.44,54.26-39.49,22.12-78.57,44.95-117.86,67.41C436,244.83,430,247.86,424,251Z"/><path class="cls-2" d="M323.44,1486.79c4.42,2,9.45,3.21,13.14,6.12,11.58,9.09,22.4,19.14,34,28.24,20.51,16.14,41.28,31.94,62.07,47.71,28,21.23,56.27,42.14,84.17,63.52,16.31,12.5,32.12,25.64,49.64,39.67-17.56,2.18-37.42-5.51-72.82-24-23.62-12.31-44.86-27.65-64.85-44.88-19.75-17-40.08-33.58-58-52.38s-33-39.88-49.4-60Z"/><path class="cls-2" d="M1014,170.28c-6.82,1.05-12,2.37-17.33,2.57-37.82,1.36-75.65,2.47-113.47,3.75-5.31.18-11.05-.36-15.85,1.43-45.48,17-94.17,9.55-140.65,18.75-4.93,1-10.22.14-15.56-1.27A334.51,334.51,0,0,1,792,161.74c25.3-6.91,50.88-10.72,77.38-9.94,36.8,1.08,73.66.9,110.46-.07C994.9,151.34,1005.37,156.25,1014,170.28Z"/><path class="cls-2" d="M294.09,389.2C269,444.6,193,564.35,172.33,577.79c3-11.22,4.26-20,7.72-27.83,17.83-40.28,35-81.15,62.78-115.85,13.17-16.44,29.31-30.49,43.95-45.76,2.31-2.41,4.94-5.33,5.54-8.39,1.5-7.52,5.33-12.71,12.84-10.13,3.55,1.22,7.54,7.6,7.49,11.58-.12,8.27-6.62,9.82-13.91,8.25A41.34,41.34,0,0,0,294.09,389.2Z"/><path class="cls-2" d="M1194.94,78.84c5.62.66,11.52.41,16.79,2.12,20.75,6.73,41.85,12.83,61.82,21.48,35.17,15.24,69.69,32,104.31,48.49,22.24,10.59,43.22,23.23,60.33,41.38,2.76,2.93,5.2,6.15,7.79,9.24l-1.74,2.72c-8.17-4.35-16.51-8.42-24.49-13.11-50.53-29.75-100.29-61-155.4-82-18.38-7-37.44-12.21-56.1-18.51-5.19-1.76-10.06-4.49-15.08-6.77Z"/><path class="cls-2" d="M1400.48,1763.17c-6.55,4.69-12.59,10.44-19.75,13.88-23,11-45.9,22.53-69.74,31.45q-62,23.18-125.08,43.12c-15.32,4.84-32.07,5.17-48.17,7.55l-1.26-4.73c7.47-2.65,14.84-5.6,22.41-7.88,46.76-14,94.13-26.34,140.17-42.43,29.89-10.45,57.88-26.36,86.74-39.79,4-1.86,8-3.56,12-5.33Z"/><path class="cls-2" d="M1639.13,1569.29c-5.07,23.34-34.61,52.71-54.92,55.92C1596.92,1601,1616.44,1585.73,1639.13,1569.29Z"/><path class="cls-2" d="M1506,1713.38a16,16,0,0,1-15.9,16.44c-9.12,0-15.84-7.14-15.65-16.54a15.87,15.87,0,0,1,15-15.75C1498.1,1697.1,1505.91,1704.55,1506,1713.38Z"/><path class="cls-2" d="M894.68,48.56c14.77-6.87,58-7.3,72.47,0Z"/><path class="cls-2" d="M1687.36,1541.16c-.38,7.77-4.33,12.24-11.91,12.46s-11.89-4-12.4-11.65c-.53-7.78,5.08-13.65,12.56-13.18C1683.35,1529.27,1686.84,1534,1687.36,1541.16Z"/><path class="cls-2" d="M868.46,1854.31c-7.85,5.28-12.1,10.29-16.35,10.3-3.27,0-9.06-6.25-9.13-9.8s5.49-10,8.78-10.11C856,1844.53,860.43,1849.37,868.46,1854.31Z"/><path class="cls-2" d="M1430.89,1726.12c3.82,6.19,7.73,9.75,7.58,13.13-.13,2.75-5.76,7.87-7.77,7.36-3.65-.94-8.41-5-9-8.31C1421.31,1735.54,1426.29,1731.9,1430.89,1726.12Z"/><path class="cls-2" d="M1466.48,224.8c8-5.87,13.43-13,20.63-5.43,6.24,6.54,1.18,12.28-5.51,18.17Z"/><path class="cls-2" d="M1606.72,326.72c-6,4.36-9.54,8.94-12.7,8.68s-7.58-5-8.41-8.44c-1.21-5.12,2.52-9.44,8.28-8.15C1597.64,319.66,1600.84,323,1606.72,326.72Z"/><path class="cls-2" d="M1149.77,69.87c-4.66,3.3-7.51,6.88-9.94,6.61-2.64-.29-4.89-4.15-7.32-6.45,2.4-2.38,4.57-6.3,7.25-6.68C1142.13,63,1145.06,66.61,1149.77,69.87Z"/><path class="cls-2" d="M739,78c-4.94,2.75-8.07,5.91-10.36,5.4-2.53-.57-6.2-4.81-5.88-6.94.36-2.46,4.44-6,7-6.06C732.1,70.35,734.6,74.22,739,78Z"/><path class="cls-2" d="M939.34,1869c3.06,5,6.44,8.07,6,10.39-.52,2.59-4.54,4.47-7,6.66-2.07-2.48-5.64-4.89-5.76-7.46S935.91,1873.49,939.34,1869Z"/><path class="cls-2" d="M1071.37,58.66c-4.19,2.92-7.08,6.48-9.4,6.13-2.51-.37-6.71-5.1-6.21-6.65,1-3.09,4.71-5.3,7.3-7.88Z"/><path class="cls-2" d="M1527.12,285.83l-3.65-7.27,3.79-1.75,3,7.29Z"/><path class="cls-2" d="M707.66,445.27l-.38-.08c-1.57-1.12-.57-.4.44.31Z"/><path class="cls-2" d="M984.41,969.64l1.12-.08L985,970Z"/><path class="cls-3" d="M1068.07,670.5l1.7-2.16c.38.36,1.14,1,1.08,1.06a22.16,22.16,0,0,1-1.73,2.26Z"/><path class="cls-3" d="M1756.05,1307.9l-2.06-1.14c.36-.35.79-1.06,1-1a10.52,10.52,0,0,1,2.16,1Z"/></svg>