<svg xmlns="http://www.w3.org/2000/svg" xmlns:xlink="http://www.w3.org/1999/xlink" viewBox="0 0 3920 2282.93"><defs><style>.cls-1{fill:url(#linear-gradient);}.cls-2{fill:#f6f7f9;}.cls-3{fill:#254769;}.cls-4{fill:#fff;}</style><linearGradient id="linear-gradient" x1="3644.29" y1="-336.54" x2="-1872" y2="4504.13" gradientUnits="userSpaceOnUse"><stop offset="0.03" stop-color="#479794"/><stop offset="0.17" stop-color="#397a78"/><stop offset="0.44" stop-color="#214644"/><stop offset="0.69" stop-color="#0f201f"/><stop offset="0.88" stop-color="#040908"/><stop offset="1"/></linearGradient></defs><g id="Layer_3" data-name="Layer 3"><rect class="cls-1" y="-0.47" width="3920" height="2283.87"/><path class="cls-2" d="M1776.24,440.93c-.09-7.58,5.94-8.38,11-8.9a50.47,50.47,0,0,1,36,9.82c15.49,11.66,30.16,24.42,44.81,37.14,10,8.65,19.11,18.24,28.94,27.05,15.78,14.14,34.83,22.38,55.17,26.6a61.44,61.44,0,0,0,36.21-3.53c-1.48-6.26-3.55-12.3-4.25-18.49-3.1-27.53,6.09-44.78,28.61-57,20.58-11.18,45.11-7.79,64.09,9,15.2,13.43,20.89,39.31,13,60-1.47,3.9-2.65,7.15.2,11.31,17.86,26.06,19.73,55.1,13.6,84.82-2.92,14.16-8.91,27.67-13.27,41.55-6.67,21.26-14.07,42.35-19.27,64-2.25,9.36-2.57,20,1.78,29.78,1.39,3.13,1.56,6.8,1.47,10.46-6.69-4.43-7.89-11.22-8.69-18.16-2.33-20.18,1-39.87,5.38-59.42,4.43-19.81,10-39.41,13.49-59.37,3.19-18.3-.05-36.46-6.21-54-.64-1.81-1.84-3.41-3.7-6.76-1.21,8-1.79,14.24-3.13,20.32-6.45,29.3-22.79,52.43-45,71.9-19.36,16.93-39.42,33.19-57.54,51.36-12.1,12.14-21.86,27-20.84,45.72.32,5.92,2.53,11.74,3.88,17.61l.36.2c-13.56-14.8-12.33-31.32-3-46.84,8.46-14.12,18.76-27.33,29.53-39.84,13.45-15.62,28.93-29.52,42.18-45.29,10-12,16.43-26.43,20-41.81,1-4.37,1.35-8.9,2.29-15.44-7.15,7.87-12.3,14-17.92,19.64-19.85,19.93-44.32,30.31-71.72,35.2-23.31,4.16-46.72,8.33-69.52,14.55-12.1,3.31-23.33,10.44-34.35,16.87-10,5.83-14.8,15.29-14.25,27.15,0,.38-.92.82-1.41,1.23-6.77-16.1,5.94-31.76,17.17-38.76,25.39-15.83,54.26-22.71,82.8-30.12,23.42-6.07,44.55-16.13,61.84-33.32,3.74-3.71,6.52-8.39,9.75-12.62a13.6,13.6,0,0,0,1.1-1.43c0-.06-.44-.44-.68-.68l-1.09,1.38c-28.24,12.45-57.42,15.61-87.22,7.29-14.31-4-28.12-9.79-42.1-14.92-19.75-7.24-39.68-13.82-60.85-15.31-11.92-.85-23.7-.44-34.49,5.94-1.74,1-4.26.74-6.42,1.05l-1.07-2.43c4.7-2.54,9.19-5.6,14.12-7.53,19.23-7.52,38.69-3.54,57.86.14,15.59,3,30.91,7.39,46.32,11.31,26.16,6.65,52.17,8.13,77.93-1.78,3-1.16,5.92-2.65,11.05-5-40-.2-69.16-17.68-92.85-45-18-20.71-34.2-43.08-55.59-60.51-8.89-7.25-19.22-13.13-29.66-18-8.26-3.86-17.6-4.12-25.87,1.72Z"/><path class="cls-2" d="M1791.59,1265.5l27.15,2.16c15.51,1.24,31,2.77,46.52,3.69,39.21,2.31,78.4,5,117.73,3.78a379.7,379.7,0,0,0,164.6-42.71c21.36-11,42.8-22,63.41-34.34,41.78-25,83.34-50.55,117.74-85.64,14.88-15.17,29.66-30.5,40.86-49,10.64-17.52,23.94-33.52,33.53-51.55,11.74-22.06,20.95-45.48,31-68.42,4.63-10.53,8.48-21.41,13.07-32,4.79-11,7.89-22.55,13.44-33.45,4.59-9,3.62-21.1,4.36-31.87,2.11-30.37,3.67-60.79,5.86-91.16.4-5.51,2.79-10.88,4.26-16.32l3-.4c1.56,3.66,4.14,7.23,4.49,11,1.79,19.19,3.75,38.43,4.13,57.67.24,12.09-2.49,24.22-3.31,36.37-.32,4.82,1,9.74,1.46,14.63.36,3.7.79,7.41.82,11.13a311.05,311.05,0,0,1-8,74.57c-1.7,7.17-1,14.92-2.71,22.08-5.36,22.25-13.52,43.34-28.71,61-2.34,2.72-5.31,4.9-9.6,8.78-3.71-16.21,6.49-29.32,4.72-43.2l-2.55-1.14c-2.19,3.3-4.53,6.51-6.55,9.91-15.72,26.47-30.57,53.5-47.3,79.32-15.9,24.53-36.47,45.35-57.68,65.44-7.37,7-14.8,14-21.13,21.94-16.83,21-38.32,36.16-60.83,50.14-10.93,6.79-21.77,13.91-33.37,19.39-14,6.6-28.67,11.64-43.08,17.28-11.35,4.43-22.43,10-34.18,12.81-20,4.7-40.4,7.67-60.66,11.21-17,3-34,6.31-51.1,8.4-18.46,2.25-37.06,4.43-55.61,4.51-33.52.15-67.1-.37-100.55-2.4-21.56-1.31-43.08-5.15-63.24-13.85-4.48-1.94-8.68-4.5-13-6.77C1790.9,1267.56,1791.25,1266.53,1791.59,1265.5Zm650.28-277,.72-.73a6.19,6.19,0,0,0-1.36-.63c-.17,0-.45.41-.67.63Z"/><path class="cls-2" d="M1470.09,1019.18q-20-33.6-40.06-67.2l-2.46.95c1,3,2,6.11,3.18,9.12,7.22,19,14.36,38,21.76,56.86,13.44,34.32,32.2,65.56,55.39,94.13,11.73,14.45,24,28.48,35.81,42.84,5,6,9.63,12.23,14.07,18.61,1.78,2.55,2.59,5.77,3.85,8.69l-1.71,1.71c-3.66-1.94-7.62-3.48-10.94-5.89-37.76-27.5-68.58-61.2-91.58-102-21-37.26-39.62-75.52-52.81-116.29-19.89-61.51-30.8-124.13-24.49-189.06,1.57-16.15,1.27-32.48,3.14-48.58,1.14-9.83,5.17-19.29,7.2-29.06,3.5-16.89,6.54-33.88,9.57-50.87.52-2.93-.25-6.07,0-9.07.69-6.78,1.68-13.54,2.55-20.32l2,.26-.6,10.48,2.14.85a88.75,88.75,0,0,0,4.37-8.93c12.44-34.39,30.72-65.79,52.09-95,25.34-34.7,53-67.67,79.43-101.61s60.55-58.87,97.41-80.25c6.08-3.52,12.79-6,19.35-8.59a11.67,11.67,0,0,1,8.7.19c-4,3.54-7.61,7.47-11.89,10.57-54.46,39.49-106,82.42-147.59,135.62-27,34.51-47.55,73-62.56,114.49-20.9,57.71-31.31,117.56-39.44,178.11-4.09,30.46,2.59,59.29,8,88.5,8,42.67,26.53,81.61,43.19,121.2,3.93,9.36,8.09,18.63,12,28,1.39,3.33,2.29,6.87,3.41,10.31Z"/><path class="cls-2" d="M2444.65,599.4c9.84,3,10.32,11.9,16.66,18.77,0-4.17.49-6.59-.07-8.74-5.2-19.94-8.95-40.45-16.27-59.59-12.4-32.43-27.14-64-40.76-95.93-2.19-5.14-3.64-10.61-5.43-15.93l1.68-1.47c2.29,2.41,4.71,4.7,6.83,7.25,22.46,26.95,38.55,57.39,49.91,90.5,12.72,37.07,24.36,74.37,31.24,113.07,5.17,29.13,4.75,57.79-4.13,86.14-.29.91-1.08,1.66-2.71,4.08-2.24-4.57-4.6-8-5.7-11.87-6.45-22.43-12.8-44.88-18.8-67.44-4.25-16-8-32.14-11.73-48.27C2444.67,607,2444.92,603.75,2444.65,599.4Z"/><path class="cls-2" d="M1562.28,1184.63c4.47,2.6,9.32,4.72,13.32,7.9,9,7.17,17.43,15.08,26.4,22.3,14.93,12,29.54,24.57,45.32,35.39,19.59,13.44,39.75,26.2,60.57,37.61,15.85,8.69,33.07,14.92,49.76,22.05,24.16,10.32,48.4,20.46,72.49,30.63,0,0-.39.82-.65.78-29.41-4.69-59.75-4.19-87.7-16.87-52.28-23.72-101.8-51.94-144.88-90.21-10.45-9.27-18.23-21.56-27.2-32.49-2.77-3.37-5.59-6.73-8-10.34-.9-1.33-.76-3.35-1.09-5.05Z"/><path class="cls-2" d="M2070.72,271.25c16.57,3.95,33.06,8.28,49.73,11.76,24.19,5.05,46.25,14.59,67,28,13.89,9,29.21,15.79,43.3,24.53,19.55,12.13,39.15,24.35,57.58,38.08,13,9.66,24.3,21.58,35.81,33,19.12,19,35.79,40.16,50.93,62.47,8.25,12.16,16.16,24.57,24,37,2.06,3.27,3.24,7.09,4.82,10.66l-2,1.09c-3.46-4.79-6.84-9.64-10.39-14.35-25.56-33.93-55.11-64.22-84.92-94.38-40.6-41.06-87.84-72.35-139.85-96.33-27.3-12.57-56.13-21.82-84.25-32.63-4.31-1.66-8.51-3.62-12.77-5.44C2070,273.63,2070.37,272.44,2070.72,271.25Z"/><path class="cls-2" d="M1593.84,315.06c4.55-4.73,8.92-9.66,13.7-14.15,31-29,65.46-53,104.33-70.21,10-4.43,21.29-6.27,32.11-8.75,3.34-.76,7.11.33,11.3.61-.9,6.95-5.77,9.29-9.85,11.57-21,11.66-42.23,22.74-63.14,34.45-25.07,14.05-49.89,28.54-74.83,42.8-3.73,2.14-7.58,4.06-11.37,6.08Z"/><path class="cls-2" d="M1532.25,1102.08c2.81,1.26,6,2,8.35,3.88,7.35,5.78,14.22,12.16,21.57,17.94,13,10.24,26.21,20.27,39.41,30.28,17.78,13.49,35.72,26.76,53.44,40.34,10.35,7.93,20.39,16.28,31.51,25.19-11.15,1.38-23.76-3.51-46.23-15.23a216.6,216.6,0,0,1-41.18-28.49c-12.53-10.81-25.45-21.33-36.85-33.26s-21-25.32-31.36-38.08Z"/><path class="cls-2" d="M1970.72,266.18c-4.33.66-7.65,1.51-11,1.63-24,.87-48,1.57-72,2.38-3.37.12-7-.23-10.06.91-28.88,10.79-59.79,6.06-89.3,11.91a22.37,22.37,0,0,1-9.89-.81,212.3,212.3,0,0,1,51.37-21.44,166.21,166.21,0,0,1,49.13-6.31c23.36.68,46.76.57,70.13,0C1958.59,254.15,1965.23,257.27,1970.72,266.18Z"/><path class="cls-2" d="M1513.62,405.18c-15.92,35.17-64.2,111.21-77.31,119.74,1.92-7.12,2.7-12.71,4.9-17.67,11.32-25.57,22.21-51.52,39.86-73.56,8.36-10.43,18.61-19.36,27.91-29.05,1.46-1.53,3.13-3.39,3.52-5.33,1-4.77,3.37-8.07,8.14-6.43,2.26.78,4.8,4.82,4.76,7.35-.08,5.26-4.2,6.24-8.83,5.25A25,25,0,0,0,1513.62,405.18Z"/><path class="cls-2" d="M2085.6,208.12c3.56.42,7.31.26,10.66,1.35,13.18,4.27,26.57,8.14,39.25,13.64,22.33,9.68,44.25,20.32,66.23,30.78,14.12,6.73,27.44,14.75,38.3,26.28,1.76,1.86,3.31,3.91,4.95,5.87l-1.1,1.72c-5.19-2.76-10.49-5.34-15.55-8.32-32.09-18.89-63.68-38.75-98.67-52.07-11.67-4.45-23.77-7.76-35.62-11.76a102.1,102.1,0,0,1-9.57-4.29C2084.85,210.25,2085.23,209.19,2085.6,208.12Z"/><path class="cls-2" d="M2216.1,1277.56c-4.16,3-8,6.63-12.54,8.81-14.59,7-29.14,14.31-44.28,20q-39.33,14.73-79.41,27.38c-9.73,3.07-20.37,3.28-30.59,4.79-.27-1-.53-2-.8-3,4.74-1.68,9.42-3.56,14.23-5,29.69-8.92,59.76-16.73,89-26.94,19-6.64,36.75-16.74,55.07-25.27,2.53-1.18,5.1-2.26,7.65-3.38C2215,1275.8,2215.55,1276.68,2216.1,1277.56Z"/><path class="cls-2" d="M2367.63,1154.46c-3.22,14.82-22,33.47-34.87,35.51C2340.83,1174.6,2353.22,1164.9,2367.63,1154.46Z"/><path class="cls-2" d="M2283.12,1246a10.12,10.12,0,0,1-10.1,10.43c-5.79,0-10.05-4.53-9.93-10.5a10.07,10.07,0,0,1,9.49-10A10.35,10.35,0,0,1,2283.12,1246Z"/><path class="cls-2" d="M1895,188.9c9.38-4.37,36.82-4.64,46,0Z"/><path class="cls-2" d="M2398.25,1136.6c-.24,4.93-2.75,7.77-7.56,7.91s-7.55-2.57-7.88-7.4,3.24-8.66,8-8.36C2395.71,1129.05,2397.92,1132,2398.25,1136.6Z"/><path class="cls-2" d="M1878.31,1335.43c-5,3.35-7.69,6.53-10.39,6.54-2.08,0-5.75-4-5.79-6.23s3.48-6.32,5.57-6.41C1870.39,1329.22,1873.21,1332.29,1878.31,1335.43Z"/><path class="cls-2" d="M2235.41,1254c2.43,3.94,4.91,6.2,4.81,8.34-.08,1.75-3.65,5-4.93,4.68-2.32-.6-5.34-3.16-5.68-5.28C2229.33,1260,2232.49,1257.71,2235.41,1254Z"/><path class="cls-2" d="M2258,300.79c5.11-3.72,8.52-8.23,13.09-3.44,4,4.15.76,7.79-3.49,11.54Z"/><path class="cls-2" d="M2347.05,365.51c-3.8,2.77-6.06,5.67-8.06,5.51s-4.81-3.15-5.34-5.36c-.77-3.25,1.6-6,5.25-5.17C2341.29,361,2343.32,363.13,2347.05,365.51Z"/><path class="cls-2" d="M2056.92,202.43c-3,2.09-4.77,4.36-6.31,4.2s-3.11-2.64-4.65-4.1c1.52-1.51,2.9-4,4.6-4.24C2052.07,198.08,2053.93,200.36,2056.92,202.43Z"/><path class="cls-2" d="M1796.09,207.61c-3.14,1.75-5.12,3.76-6.58,3.43s-3.94-3-3.74-4.4c.23-1.57,2.83-3.78,4.47-3.85C1791.73,202.73,1793.31,205.19,1796.09,207.61Z"/><path class="cls-2" d="M1923.31,1344.72c1.94,3.17,4.09,5.13,3.79,6.6-.33,1.64-2.88,2.84-4.46,4.23-1.32-1.57-3.59-3.1-3.66-4.74S1921.13,1347.61,1923.31,1344.72Z"/><path class="cls-2" d="M2007.14,195.31c-2.66,1.85-4.5,4.11-6,3.89s-4.26-3.24-3.94-4.22c.63-2,3-3.37,4.63-5Z"/><path class="cls-2" d="M2296.51,339.55l-2.32-4.62,2.41-1.11c.63,1.54,1.25,3.09,1.88,4.63Z"/><path class="cls-2" d="M1776.2,440.78c-.73-.15-1.47-.3-.23,0-1-.71-.36-.26.27.2Z"/><path class="cls-2" d="M1951.93,773.72l.71-.05-.35.25Z"/><path class="cls-3" d="M2005,583.79l1.09-1.38c.24.24.72.62.68.68a13.6,13.6,0,0,1-1.1,1.43Z"/><path class="cls-3" d="M2441.87,988.5l-1.31-.73c.22-.22.5-.67.67-.63a6.19,6.19,0,0,1,1.36.63Z"/><path class="cls-4" d="M2033.73,980.18l.57-54.18c1-3.88,2.69-7.74,2.75-11.64.3-19.43.15-38.87.18-58.3,0-15.34.14-15.44,15.05-15.55l10.6-.09-.19,52.7c-.69,3.72-1.94,7.44-2,11.17q-.35,30.48-.13,61c0,3.46,1,6.92,1.55,10.37V1046h-44.27q-10.57-73.74-21.12-147.24l-1.83.16v147h-27.28V839.24h44.69c.7,4,1.57,8.31,2.16,12.61q8,58.26,15.92,116.53c.55,4,.87,8.09,1.3,12.14l2.84,8.34,1.27-.43Z"/><path class="cls-4" d="M1786.92,840.59c17,0,32.93-1,48.71.28,15.61,1.27,27.37,15.84,28.09,32.77.53,12.37.21,24.78.23,37.17,0,14.75-.39,29.52.11,44.26.55,16.59-1.28,32-16.31,42.66,5.83,16.06,11.42,31.44,17.38,47.82h-29.37l-17-44.15c-7.49,7.75-4.24,15.36-4.76,22-.56,7.2-.13,14.48-.13,22h-27ZM1814,868c-.1,35.68-.11,70.75,0,105.39,18.72,4.15,22,1.63,22-15.24q0-38.46,0-76.91c0-12.26-2.19-14.27-14.63-14C1819.55,867.35,1817.81,867.63,1814,868Z"/><path class="cls-4" d="M2253.47,1045.25h-27.22V938.07h-23.49v106.76h-27.69V840.44h27.34V908.9c7,0,13,.35,19-.11,4.86-.37,4.62-4.53,4.63-8.12V840.55h27.42Z"/><path class="cls-4" d="M2129.89,987.74h26.4c5.65,26.83-1.7,45.61-22.77,54.43-23.57,9.88-49.4-5.22-53.15-30.53a55.56,55.56,0,0,1-.49-7.95c0-40.73-.11-81.46,0-122.19.07-20.06,9.24-34.48,26.54-39.54,24.26-7.11,50.29,7.1,51.42,35.14.16,4.06,0,8.12,0,12.81h-28c-.28-3.88-.44-7.6-.85-11.3-.71-6.27-4.68-10.53-9.82-10.77s-9.35,3.76-10.46,10.08a36.38,36.38,0,0,0-.34,6.18q0,58.44,0,116.88a30.19,30.19,0,0,0,.35,6.17c1.14,5.45,4.15,9.15,10.16,9.22,5.49.07,9.51-4,10.12-10.19.29-2.92.06-5.9.18-8.85S2129.62,991.58,2129.89,987.74Z"/><path class="cls-4" d="M1769.76,840.58V867.2h-33.2v177.73h-27.88c-.21-58.87,0-117.61-.14-177.74h-36.39V841.77C1678.47,839.1,1757.64,838,1769.76,840.58Z"/><path class="cls-4" d="M1901.35,840.48h48.34v26.74h-39v41.65h38.44v27.92h-38.33v80.68h38.88v27.89H1903c-.63-8.79-1.7-17.58-1.82-26.37-.27-20.92-.12-41.83-.08-62.75Q1901.17,898.37,1901.35,840.48Z"/><path class="cls-4" d="M1901.35,840.48q-.15,57.88-.3,115.76c0,20.92-.19,41.83.08,62.75.12,8.79,1.19,17.58,1.82,26.37h-20.06V840.48Z"/></g></svg>